<svg width="16" height="16" viewBox="0 0 16 16" fill="none" xmlns="http://www.w3.org/2000/svg">
<g id="Iconly/Light/Camera">
<g id="Camera">
<path id="Stroke 1" fill-rule="evenodd" clip-rule="evenodd" d="M10.0268 2.70088C10.7001 2.96888 10.9061 3.90221 11.1815 4.20221C11.4568 4.50221 11.8508 4.60421 12.0688 4.60421C13.2275 4.60421 14.1668 5.54354 14.1668 6.70154V10.5649C14.1668 12.1182 12.9068 13.3782 11.3535 13.3782H4.6468C3.0928 13.3782 1.83347 12.1182 1.83347 10.5649V6.70154C1.83347 5.54354 2.7728 4.60421 3.93147 4.60421C4.1488 4.60421 4.5428 4.50221 4.8188 4.20221C5.09413 3.90221 5.29947 2.96888 5.9728 2.70088C6.6468 2.43288 9.35347 2.43288 10.0268 2.70088Z" stroke="white" stroke-width="1.5" stroke-linecap="round" stroke-linejoin="round"/>
<path id="Stroke 13" d="M11.6637 6.33333H11.6697" stroke="white" stroke-width="2" stroke-linecap="round" stroke-linejoin="round"/>
<path id="Stroke 5" fill-rule="evenodd" clip-rule="evenodd" d="M10.1193 8.75202C10.1193 7.58136 9.1706 6.63269 7.99993 6.63269C6.82927 6.63269 5.8806 7.58136 5.8806 8.75202C5.8806 9.92269 6.82927 10.8714 7.99993 10.8714C9.1706 10.8714 10.1193 9.92269 10.1193 8.75202Z" stroke="white" stroke-width="1.5" stroke-linecap="round" stroke-linejoin="round"/>
</g>
</g>
</svg>
