<svg width="16" height="17" viewBox="0 0 16 17" fill="none" xmlns="http://www.w3.org/2000/svg">
<path d="M7.33334 6.50016H8.66668V5.16683H7.33334M8.00001 13.8335C5.06001 13.8335 2.66668 11.4402 2.66668 8.50016C2.66668 5.56016 5.06001 3.16683 8.00001 3.16683C10.94 3.16683 13.3333 5.56016 13.3333 8.50016C13.3333 11.4402 10.94 13.8335 8.00001 13.8335ZM8.00001 1.8335C7.12453 1.8335 6.25762 2.00593 5.44879 2.34097C4.63995 2.676 3.90502 3.16706 3.28596 3.78612C2.03572 5.03636 1.33334 6.73205 1.33334 8.50016C1.33334 10.2683 2.03572 11.964 3.28596 13.2142C3.90502 13.8333 4.63995 14.3243 5.44879 14.6594C6.25762 14.9944 7.12453 15.1668 8.00001 15.1668C9.76812 15.1668 11.4638 14.4645 12.7141 13.2142C13.9643 11.964 14.6667 10.2683 14.6667 8.50016C14.6667 7.62468 14.4942 6.75778 14.1592 5.94894C13.8242 5.1401 13.3331 4.40517 12.7141 3.78612C12.095 3.16706 11.3601 2.676 10.5512 2.34097C9.7424 2.00593 8.87549 1.8335 8.00001 1.8335ZM7.33334 11.8335H8.66668V7.8335H7.33334V11.8335Z" fill="#333333"/>
</svg>
