<svg width="16" height="16" viewBox="0 0 16 16" fill="none" xmlns="http://www.w3.org/2000/svg">
<path d="M12.1255 10.685L13.2225 11.416C13.3289 11.4869 13.4583 11.5145 13.5843 11.4929C13.7104 11.4713 13.8233 11.4023 13.9 11.3L15.4 9.3L14.6 8.7L13.3835 10.322L12.2775 9.584C12.1695 9.51186 12.0377 9.48457 11.9099 9.5079C11.7822 9.53123 11.6685 9.60335 11.593 9.709L10 11.9395V8H9V13C9.00027 13.2651 9.10571 13.5193 9.29319 13.7068C9.48066 13.8943 9.73487 13.9997 10 14H15V13H10.4715L12.1255 10.685ZM1 10.5H8V11.5H1V10.5ZM1 13H8V14H1V13ZM5.5 8V5.5H6C6.53023 5.49934 7.03855 5.28841 7.41348 4.91348C7.78841 4.53855 7.99934 4.03023 8 3.5V2H6.5C5.98799 2.00084 5.49603 2.19909 5.1265 2.5535C4.86758 2.08338 4.48735 1.69129 4.0254 1.41806C3.56346 1.14484 3.0367 1.00047 2.5 1H1V2.5C1.00093 3.29537 1.31729 4.05789 1.8797 4.6203C2.44211 5.18271 3.20463 5.49907 4 5.5H4.5V8H1V9H8V8H5.5ZM6.5 3H7V3.5C6.99974 3.76514 6.89429 4.01934 6.70681 4.20681C6.51934 4.39429 6.26514 4.49974 6 4.5H5.5V4C5.50026 3.73486 5.60571 3.48066 5.79319 3.29319C5.98066 3.10571 6.23486 3.00026 6.5 3ZM4 4.5C3.46977 4.49934 2.96145 4.28841 2.58652 3.91348C2.21159 3.53855 2.00066 3.03023 2 2.5V2H2.5C3.03023 2.00066 3.53855 2.21159 3.91348 2.58652C4.28841 2.96145 4.49934 3.46977 4.5 4V4.5H4Z" fill="white"/>
</svg>
